HIERARCHY
ROOT Hips
{
 OFFSET 0.000000 0.000000 0.000000
 CHANNELS 6 Xposition Yposition Zposition Yrotation Xrotation Zrotation
 JOINT Chest
 {
  OFFSET 0.000000 10.678932 0.006280
  CHANNELS 3 Yrotation Xrotation Zrotation
  JOINT Chest2
  {
   OFFSET 0.000000 10.491159 -0.011408
   CHANNELS 3 Yrotation Xrotation Zrotation
   JOINT Chest3
   {
    OFFSET 0.000000 9.479342 0.000000
    CHANNELS 3 Yrotation Xrotation Zrotation
    JOINT Chest4
    {
     OFFSET 0.000000 9.479342 0.000000
     CHANNELS 3 Yrotation Xrotation Zrotation
     JOINT Neck
     {
      OFFSET 0.000000 13.535332 0.000000
      CHANNELS 3 Yrotation Xrotation Zrotation
      JOINT Head
      {
       OFFSET 0.000000 8.819083 -0.027129
       CHANNELS 3 Yrotation Xrotation Zrotation
       End Site
       {
        OFFSET 0.000000 16.966594 -0.014170
       }
      }
     }
     JOINT RightCollar
     {
      OFFSET -3.012546 7.545150 0.000000
      CHANNELS 3 Yrotation Xrotation Zrotation
      JOINT RightShoulder
      {
       OFFSET -13.683099 0.000000 0.000000
       CHANNELS 3 Yrotation Xrotation Zrotation
       JOINT RightElbow
       {
        OFFSET -26.359998 0.000000 0.000000
        CHANNELS 3 Yrotation Xrotation Zrotation
        JOINT RightWrist
        {
         OFFSET -21.746691 0.000000 0.008601
         CHANNELS 3 Yrotation Xrotation Zrotation
         End Site
         {
          OFFSET -16.348058 0.000000 0.000000
         }
        }
       }
      }
     }
     JOINT LeftCollar
     {
      OFFSET 3.012546 7.545150 0.000000
      CHANNELS 3 Yrotation Xrotation Zrotation
      JOINT LeftShoulder
      {
       OFFSET 13.683099 0.000000 0.000000
       CHANNELS 3 Yrotation Xrotation Zrotation
       JOINT LeftElbow
       {
        OFFSET 26.359998 0.000000 0.000000
        CHANNELS 3 Yrotation Xrotation Zrotation
        JOINT LeftWrist
        {
         OFFSET 21.746691 0.000000 0.008601
         CHANNELS 3 Yrotation Xrotation Zrotation
         End Site
         {
          OFFSET 16.348058 0.000000 0.000000
         }
        }
       }
      }
     }
    }
   }
  }
 }
 JOINT RightHip
 {
  OFFSET -8.622479 -0.030774 -0.003140
  CHANNELS 3 Yrotation Xrotation Zrotation
  JOINT RightKnee
  {
   OFFSET 0.000000 -37.209160 -0.002630
   CHANNELS 3 Yrotation Xrotation Zrotation
   JOINT RightAnkle
   {
    OFFSET 0.000000 -37.343279 -0.058479
    CHANNELS 3 Yrotation Xrotation Zrotation
    JOINT RightToe
    {
     OFFSET 0.000000 -8.903465 15.088070
     CHANNELS 3 Yrotation Xrotation Zrotation
     End Site
     {
      OFFSET 0.000000 -1.471739 6.884388
     }
    }
   }
  }
 }
 JOINT LeftHip
 {
  OFFSET 8.622479 -0.030774 -0.003140
  CHANNELS 3 Yrotation Xrotation Zrotation
  JOINT LeftKnee
  {
   OFFSET 0.000000 -37.209160 -0.002630
   CHANNELS 3 Yrotation Xrotation Zrotation
   JOINT LeftAnkle
   {
    OFFSET 0.000000 -37.343279 -0.058479
    CHANNELS 3 Yrotation Xrotation Zrotation
    JOINT LeftToe
    {
     OFFSET 0.000000 -8.903465 15.088070
     CHANNELS 3 Yrotation Xrotation Zrotation
     End Site
     {
      OFFSET 0.000000 -1.471739 6.884388
     }
    }
   }
  }
 }
}
MOTION
Frames: 12
Frame Time: 0.025000
-0.207611 83.315683 -17.340600 0.000000 -5.826342 0.000000 0.000000 11.116423 0.000000 0.000000 -5.290081 0.000000 0.000000 0.000000 0.000000 0.000000 0.000000 0.000000 0.000000 12.665069 0.000000 0.000000 0.575450 0.000000 0.000000 0.000000 0.000000 0.000000 0.000000 0.000000 2.337306 0.000000 0.000000 -2.337306 0.000000 0.000000 0.000000 0.000000 0.000000 0.000000 0.000000 0.000000 -2.337306 0.000000 0.000000 2.337306 0.000000 0.000000 0.000000 8.578828 0.000000 0.000000 1.905768 0.000000 0.000000 -4.658254 0.000000 0.000000 0.000000 0.000000 0.000000 8.578828 0.000000 0.000000 1.905768 0.000000 0.000000 -4.658254 0.000000 0.000000 0.000000 0.000000
-170.054294 81.764214 -341.516381 22.972828 -6.370998 -0.475595 1.690447 4.629088 -0.050206 0.062898 0.169733 0.001048 0.103375 0.278956 0.001820 1.621565 4.364098 0.086351 -3.410426 15.874543 1.512632 -6.904386 -6.535561 4.060197 -0.404660 -4.210681 -0.062813 5.594489 31.163923 54.736811 115.440885 19.571885 64.240413 29.758806 9.018561 -14.799129 -4.863741 -2.495814 7.442337 -26.985062 24.660342 -65.725136 -106.476413 23.218275 -57.011017 -26.639039 10.805111 24.326491 0.311750 9.325764 -16.512925 -18.435481 3.363318 -0.387116 22.383959 -8.189608 18.134749 0.070149 -0.158748 0.040755 5.342624 15.742577 16.041469 10.477322 -7.820520 -0.039471 -2.450683 -0.463401 -18.473806 -0.057312 0.078402 -0.023349
-170.046618 81.765702 -341.518794 23.051412 -6.348400 -0.458814 1.617359 4.599762 -0.030872 0.060172 0.168263 0.002562 0.098933 0.276639 0.004305 1.563389 4.355448 0.123530 -3.451416 16.149270 1.540751 -6.974056 -6.021362 4.108378 -0.398745 -4.177782 -0.111352 5.604375 31.107405 54.671597 115.542190 19.560101 64.253792 29.791469 9.016314 -14.757731 -4.760038 -2.485439 7.396081 -27.021385 24.702020 -65.790155 -106.485834 23.245179 -56.961235 -26.591677 10.768281 24.343972 0.279772 9.327531 -16.541954 -18.460123 3.362420 -0.390791 22.136120 -8.094777 18.164627 0.082435 -0.187950 0.054167 5.330561 15.711720 16.032060 10.420146 -7.841090 -0.057930 -2.457206 -0.463853 -18.481831 -0.052902 0.090451 -0.012244
-170.048841 81.765498 -341.525428 23.111844 -6.329973 -0.456954 1.557883 4.595161 0.013984 0.058153 0.168223 0.004175 0.095626 0.276602 0.006956 1.515617 4.362776 0.163905 -3.447930 16.251883 1.523159 -6.955081 -5.832625 4.067457 -0.377846 -4.137259 -0.161039 5.558610 31.069564 54.661685 115.605976 19.585032 64.238805 29.810289 9.021976 -14.702417 -4.665048 -2.504536 7.351370 -27.053580 24.729117 -65.846004 -106.524314 23.271806 -56.944729 -26.556409 10.730834 24.289948 0.266280 9.321551 -16.548800 -18.474649 3.369790 -0.393212 22.011732 -8.055073 18.170828 0.082959 -0.196812 0.060479 5.317524 15.676178 16.049200 10.388897 -7.848581 -0.092542 -2.476363 -0.454486 -18.485078 -0.039328 0.090579 -0.005244
-170.057251 81.766281 -341.534467 23.128858 -6.318226 -0.435050 1.540338 4.636438 0.031503 0.057545 0.170321 0.004625 0.094600 0.279974 0.007693 1.492284 4.393474 0.174449 -3.424127 16.233284 1.481659 -6.897157 -5.871716 3.983200 -0.368998 -4.139712 -0.169118 5.466203 31.069826 54.694373 115.653734 19.616612 64.232619 29.806764 9.035261 -14.660101 -4.625005 -2.541860 7.342401 -27.079074 24.731981 -65.878491 -106.532762 23.285474 -56.920614 -26.532319 10.683982 24.201506 0.270549 9.303702 -16.570088 -18.471960 3.386525 -0.399919 21.953559 -8.050155 18.174001 0.082160 -0.188840 0.057060 5.317450 15.651605 16.032651 10.368987 -7.847867 -0.108364 -2.476067 -0.440868 -18.480070 -0.042475 0.085149 -0.009217
-170.073446 81.766352 -341.541904 23.120430 -6.290198 -0.427695 1.554775 4.674018 0.046634 0.057877 0.171694 0.004186 0.095125 0.282168 0.006972 1.494315 4.410785 0.162972 -3.394050 16.152402 1.438209 -6.830489 -6.026789 3.897197 -0.397785 -4.136238 -0.146983 5.421625 31.071083 54.769646 115.623361 19.674151 64.220771 29.813124 9.040999 -14.634874 -4.650362 -2.555424 7.361849 -27.133957 24.740855 -65.933881 -106.502375 23.318660 -56.887005 -26.550954 10.602468 24.158741 0.257560 9.263339 -16.582477 -18.448535 3.389936 -0.398825 21.924227 -8.072613 18.188233 0.068945 -0.152006 0.044028 5.324140 15.614117 16.032818 10.347974 -7.850256 -0.119924 -2.479528 -0.414289 -18.480406 -0.036518 0.066247 -0.011303
-170.085494 81.767023 -341.544819 23.093918 -6.239514 -0.397604 1.561094 4.689671 0.029593 0.058078 0.172205 0.003642 0.095446 0.282985 0.006078 1.496613 4.417115 0.148992 -3.350761 16.038176 1.397172 -6.741910 -6.244308 3.812991 -0.401260 -4.139753 -0.143563 5.421334 31.058748 54.852827 115.586097 19.715498 64.222376 29.793389 9.032911 -14.606453 -4.672678 -2.546197 7.375760 -27.191468 24.748896 -65.957940 -106.432982 23.320850 -56.841497 -26.609469 10.400046 24.101148 0.228243 9.207507 -16.615968 -18.422879 3.359405 -0.399938 21.806053 -8.018858 18.214044 0.067034 -0.142699 0.042681 5.353364 15.560984 16.003463 10.357642 -7.850538 -0.132406 -2.489240 -0.391706 -18.470299 -0.049673 0.056244 -0.019749
-170.092457 81.765536 -341.532173 23.031253 -6.191086 -0.381586 1.572702 4.694233 0.020781 0.058539 0.172283 0.003189 0.096200 0.283104 0.005334 1.507087 4.416480 0.137687 -3.301686 15.914665 1.360639 -6.644515 -6.479015 3.735451 -0.385416 -4.139028 -0.130305 5.461994 31.057055 54.875162 115.570244 19.749980 64.230919 29.768587 9.034764 -14.591635 -4.681326 -2.560854 7.389745 -27.253815 24.776792 -65.989798 -106.403228 23.328465 -56.799700 -26.617750 10.124974 24.046842 0.209148 9.161879 -16.626372 -18.389941 3.317317 -0.394113 22.169080 -8.110452 18.170590 0.062266 -0.130615 0.035603 5.414296 15.531807 15.992458 10.343650 -7.859741 -0.137139 -2.467968 -0.379532 -18.465728 -0.057714 0.047965 -0.027881
-170.105163 81.763012 -341.518649 22.973294 -6.140403 -0.378434 1.571869 4.684700 0.017357 0.058812 0.172429 0.003020 0.096645 0.283333 0.005057 1.512957 4.417373 0.133530 -3.263898 15.809330 1.331362 -6.569528 -6.678738 3.674099 -0.339487 -4.150904 -0.129131 5.500993 31.049956 54.880975 115.548088 19.768723 64.265869 29.761954 9.035494 -14.615540 -4.696916 -2.588672 7.396422 -27.327759 24.813751 -66.020349 -106.408958 23.329066 -56.741332 -26.524608 9.863561 23.986570 0.208733 9.103247 -16.632317 -18.366745 3.305352 -0.394245 22.065013 -8.078231 18.198415 0.064060 -0.119340 0.031868 5.422383 15.510489 15.979354 10.364921 -7.877716 -0.125530 -2.444896 -0.348229 -18.475768 -0.062450 0.032678 -0.032738
-170.118683 81.760348 -341.507696 22.910480 -6.102951 -0.379175 1.575513 4.678085 0.010582 0.059183 0.172572 0.002725 0.097251 0.283558 0.004571 1.521096 4.417877 0.126207 -3.232874 15.734987 1.316705 -6.510594 -6.819531 3.640296 -0.316136 -4.175892 -0.114719 5.556200 31.067227 54.861963 115.506413 19.772541 64.270930 29.777322 9.043415 -14.659178 -4.724790 -2.642180 7.409070 -27.364181 24.848013 -66.027296 -106.388325 23.287857 -56.705206 -26.425316 9.653491 23.864737 0.210909 9.040746 -16.644372 -18.326419 3.325675 -0.370178 22.061837 -8.081530 18.200701 0.062188 -0.114915 0.021669 5.414995 15.499314 15.960702 10.408086 -7.883002 -0.099968 -2.432269 -0.328214 -18.495757 -0.063614 0.024658 -0.034402
-170.135077 81.759391 -341.480115 22.839569 -6.102224 -0.392230 1.577417 4.684863 0.012219 0.059171 0.172525 0.002569 0.097231 0.283484 0.004316 1.520843 4.417391 0.122218 -3.201163 15.698526 1.305117 -6.449314 -6.889877 3.609473 -0.291796 -4.184585 -0.103087 5.578412 31.048801 54.849875 115.483508 19.793426 64.292394 29.802519 9.058988 -14.671605 -4.724207 -2.680065 7.411462 -27.391714 24.866845 -66.014056 -106.420848 23.265770 -56.679436 -26.361801 9.516273 23.737678 0.230789 9.026804 -16.637895 -18.313621 3.350633 -0.341529 22.167698 -8.119885 18.177912 0.067171 -0.112412 0.018224 5.419113 15.541534 15.959490 10.497005 -7.896897 -0.073428 -2.446233 -0.308124 -18.512240 -0.067896 0.015092 -0.045261
-170.150309 81.756822 -341.448906 22.789153 -6.102693 -0.399269 1.583040 4.676468 0.003847 0.059149 0.171899 0.002352 0.097203 0.282481 0.003958 1.522740 4.409194 0.116718 -3.178932 15.695505 1.291799 -6.403179 -6.897722 3.576740 -0.303662 -4.187526 -0.081068 5.538398 31.057233 54.817162 115.520537 19.805176 64.286030 29.792600 9.067038 -14.650941 -4.745245 -2.704343 7.424388 -27.401841 24.861591 -66.001722 -106.438655 23.249918 -56.682455 -26.334158 9.462673 23.703680 0.229547 9.017972 -16.636754 -18.306110 3.372555 -0.320715 22.296217 -8.161495 18.163629 0.066374 -0.115260 0.012166 5.449154 15.571288 15.968571 10.548216 -7.901758 -0.063705 -2.453621 -0.302648 -18.506471 -0.075952 0.017669 -0.060172
